<?xml version="1.0" encoding="utf-8"?>
<!-- Generator: Adobe Illustrator 22.1.0, SVG Export Plug-In . SVG Version: 6.00 Build 0)  -->
<svg version="1.1" id="bb535a4d-a035-40f6-99ac-869b240e0289"
	 xmlns="http://www.w3.org/2000/svg" xmlns:xlink="http://www.w3.org/1999/xlink" x="0px" y="0px" viewBox="0 0 995 904.7"
	 style="enable-background:new 0 0 995 904.7;" xml:space="preserve">
<style type="text/css">
	.st0{fill:#0BA86B;}
	.st1{fill:#CCCCCC;}
	.st2{fill:#FFFFFF;}
	.st3{fill:#F2F2F2;}
	.st4{fill:#01BB63;}
	.st5{fill:#3F3D56;}
	.st6{fill:#FFB8B8;}
	.st7{fill:#FBAE25;}
	.st8{fill:#A0616A;}
	.st9{fill:#126D91;}
	.st10{opacity:0.2;enable-background:new    ;}
	.st11{fill:#2F2E41;}
	.st12{fill:#E6E6E6;}
	.st13{fill:#FF6584;}
	.st14{fill:#0CEF9D;}
</style>
<ellipse class="st0" cx="492.3" cy="452.4" rx="452.4" ry="289.1"/>
<path class="st1" d="M812.7,541.1H171.9c-9.1,0-16.5-7.4-16.5-16.5V129.4c0-6.7,5.4-12.1,12.1-12.1h649.5c6.8,0,12.3,5.5,12.3,12.3
	v394.9C829.2,533.7,821.8,541.1,812.7,541.1z"/>
<path class="st2" d="M789.3,517.7H192.1c-8.8,0-15.9-6.7-15.9-14.9V158.7c0-6.1,5.3-11,11.8-11h605.3c6.6,0,12,5,12,11.2v343.9
	C805.2,511,798.1,517.7,789.3,517.7z"/>
<path class="st1" d="M829,128.5H155.1v-8.4c0-9.1,7.4-16.5,16.6-16.5h640.7c9.1,0,16.5,7.4,16.6,16.5V128.5z"/>
<circle class="st2" cx="185.2" cy="116" r="4.3"/>
<circle class="st2" cx="201.5" cy="116" r="4.3"/>
<circle class="st2" cx="217.7" cy="116" r="4.3"/>
<path class="st1" d="M723.6,460H260.7c-9.7,0-17.5-7.8-17.5-17.5V219.3c0-7.2,5.9-13.1,13.1-13.1h471.5c7.3,0,13.3,6,13.3,13.3
	v222.9C741.1,452.2,733.2,460,723.6,460z M256.3,208.3c-6.1,0-11.1,5-11.1,11.1v223.2c0,8.6,6.9,15.5,15.5,15.5h462.8
	c8.6,0,15.5-6.9,15.5-15.5V219.6c0-6.2-5.1-11.3-11.3-11.3H256.3z"/>
<path class="st3" d="M276.7,442.5h430.8c8.8,0,16-7.2,16-16V240c0-8.8-7.2-16-16-16H276.7c-8.8,0-16,7.2-16,16v186.5
	C260.7,435.3,267.9,442.5,276.7,442.5z"/>
<circle class="st1" cx="325.7" cy="269.2" r="9"/>
<circle class="st1" cx="325.7" cy="303.2" r="9"/>
<circle class="st1" cx="325.7" cy="337.2" r="9"/>
<circle class="st1" cx="325.7" cy="371.2" r="9"/>
<path class="st1" d="M666.7,270.2h-296c-0.6,0-1-0.4-1-1s0.4-1,1-1h296c0.6,0,1,0.4,1,1S667.2,270.2,666.7,270.2z"/>
<path class="st1" d="M666.7,304.2h-296c-0.6,0-1-0.4-1-1s0.4-1,1-1h296c0.6,0,1,0.4,1,1S667.2,304.2,666.7,304.2z"/>
<path class="st1" d="M666.7,338.2h-296c-0.6,0-1-0.4-1-1s0.4-1,1-1h296c0.6,0,1,0.4,1,1S667.2,338.2,666.7,338.2z"/>
<path class="st1" d="M666.7,372.2h-296c-0.6,0-1-0.4-1-1s0.4-1,1-1h296c0.6,0,1,0.4,1,1S667.2,372.2,666.7,372.2z"/>
<path class="st4" d="M426.7,406.2h-29c-2.8,0-5-2.2-5-5v-27c0-2.8,2.2-5,5-5h29c2.8,0,5,2.2,5,5v27
	C431.7,404,429.4,406.2,426.7,406.2z"/>
<path class="st4" d="M491.7,406.2h-29c-2.8,0-5-2.2-5-5v-61c0-2.8,2.2-5,5-5h29c2.8,0,5,2.2,5,5v61
	C496.7,404,494.4,406.2,491.7,406.2z"/>
<path class="st4" d="M557.7,406.2h-29c-2.8,0-5-2.2-5-5v-95c0-2.8,2.2-5,5-5h29c2.8,0,5,2.2,5,5v95
	C562.7,404,560.4,406.2,557.7,406.2z"/>
<path class="st4" d="M625.7,406.2h-29c-2.8,0-5-2.2-5-5v-128c0-2.8,2.2-5,5-5h29c2.8,0,5,2.2,5,5v128
	C630.7,404,628.4,406.2,625.7,406.2z"/>
<path class="st5" d="M666.7,406.2h-296c-0.6,0-1-0.4-1-1s0.4-1,1-1h296c0.6,0,1,0.4,1,1S667.2,406.2,666.7,406.2z"/>
<path class="st6" d="M796.7,592.8c3.1-4.6,9.3-5.9,13.9-2.8c0.5,0.3,1,0.7,1.4,1.1l31.8-16.4l-2,18.5l-29.9,12.7
	c-4.1,3.8-10.5,3.5-14.3-0.6C794.5,601.8,794.1,596.7,796.7,592.8z"/>
<path class="st7" d="M824,599.7c-0.7-0.6-1.3-1.3-1.5-2.2l-2.5-8.2c-0.6-1.8,0.1-3.8,1.6-4.9l25.7-19.4l27.9-51.7
	c4.9-6.3,14-7.5,20.3-2.6c6.3,4.9,7.5,14,2.6,20.3l0,0l-15.9,33.5c-4.8,10.2-13.1,18.2-23.5,22.7l-30.2,13.1c-1.2,0.5-2.5,0.5-3.7,0
	C824.6,600.1,824.3,599.9,824,599.7z"/>
<circle class="st8" cx="898.8" cy="467.1" r="24.6"/>
<polygon class="st8" points="888.8,789.3 876.6,789.3 870.7,742 888.8,742 "/>
<path class="st5" d="M867.8,785.8h23.6l0,0v14.9l0,0h-38.5l0,0l0,0C852.9,792.4,859.6,785.8,867.8,785.8z"/>
<polygon class="st8" points="928.8,789.3 916.6,789.3 910.7,742 928.8,742 "/>
<path class="st5" d="M907.8,785.8h23.6l0,0v14.9l0,0h-38.5l0,0l0,0C892.9,792.4,899.6,785.8,907.8,785.8L907.8,785.8z"/>
<path class="st9" d="M929.7,777.3l-14.4,0c-2,0-3.8-1.4-4.3-3.3l-20.7-76.7c-0.1-0.3-0.3-0.4-0.6-0.4c-0.2,0.1-0.4,0.3-0.4,0.5
	l4.2,72.7c0.1,2.5-1.8,4.6-4.2,4.8c-0.2,0-0.4,0-0.6,0l-16.1-1.3c-2.1-0.2-3.8-1.8-4.1-4l-14.7-152.7l5.7,3.4l53.3-9.1l21.5,161
	c0.3,2.5-1.4,4.7-3.9,5.1C930.1,777.3,929.9,777.3,929.7,777.3z"/>
<path class="st7" d="M871.5,632.9c-5.9,0-11.6-1.7-16.7-4.7c-1.6-0.9-2.4-2.8-2.1-4.6c1.9-11.5,11.7-70.4,20.6-102.5
	c3.6-13.1,11.7-20.1,23.9-20.9c17.9-1.2,33.7,12.8,35.4,31.2c2.9,32.4-8.9,78.6-14.2,96.9c-0.7,2.4-3.2,3.8-5.6,3.1
	c-0.6-0.2-1.1-0.4-1.5-0.8l-10.7-8.3c-1.4-1-3.3-1-4.5,0.2C887.2,630.5,878.6,632.9,871.5,632.9z"/>
<polygon class="st10" points="906.8,547.3 915.8,585.3 902.8,617.3 911.8,586.3 "/>
<path class="st11" d="M912.8,487.3c2.2,0,4.4-0.4,6.4-1.2c0.9-0.3,1.8-0.6,2.7-1c7.9-3,13.1-11.4,13.3-19.9s-4.2-16.6-10.7-22.1
	s-14.9-8.2-23.3-8.8c-9.1-0.7-19.3,1.6-24.4,9.2c-1.3,2-2.3,4.5-1.5,6.9c0.2,0.7,0.7,1.4,1.2,1.9c2.3,2,4.5,0.5,6.8,0.4
	c3.2-0.2,6,2.4,7,5.4s0.6,6.3-0.3,9.4c-0.6,1.8-1,3.8-1.2,5.7c-0.1,2,0.8,3.9,2.4,5.1c2,1.2,4.6,0.5,6.6-0.7s3.7-2.9,5.8-3.7
	s5-0.7,6.3,1.3c0.4,0.7,0.7,1.5,0.8,2.3C911.9,482.5,911.7,482.2,912.8,487.3L912.8,487.3z"/>
<path class="st1" d="M874.7,755l-153.8-53.6c-5.5-1.9-8.4-7.9-6.5-13.4l40-114.8c1.4-4,5.8-6.2,9.8-4.8l159,55.4
	c4.1,1.4,6.3,5.9,4.8,10l-39.9,114.6C886.2,754,880.2,756.9,874.7,755z"/>
<path class="st2" d="M734,694.8l134.5,46.8c5.3,1.9,11.2-1,13-6.3l32.3-92.7c1.9-5.3-1-11.2-6.3-13l0,0L773,582.8
	c-5.3-1.9-11.2,1-13,6.3l-32.3,92.7C725.9,687.1,728.7,692.9,734,694.8z"/>
<path class="st4" d="M767.8,629.7l-6.7-2.3c-0.8-0.3-1.1-1.1-0.9-1.8l2.3-6.7c0.3-0.8,1.1-1.1,1.8-0.9l6.7,2.3
	c0.8,0.3,1.1,1.1,0.9,1.8l-2.3,6.7C769.4,629.6,768.6,630,767.8,629.7z"/>
<path class="st5" d="M761.8,647l-6.7-2.3c-0.8-0.3-1.1-1.1-0.9-1.8l2.3-6.7c0.3-0.8,1.1-1.1,1.8-0.9l6.7,2.3
	c0.8,0.3,1.1,1.1,0.9,1.8l-2.3,6.7C763.4,646.8,762.6,647.2,761.8,647z"/>
<path class="st1" d="M755.8,664.2l-6.7-2.3c-0.8-0.3-1.1-1.1-0.9-1.8l2.3-6.7c0.3-0.8,1.1-1.1,1.8-0.9l6.7,2.3
	c0.8,0.3,1.1,1.1,0.9,1.8l-2.3,6.7C757.4,664.1,756.6,664.5,755.8,664.2z"/>
<path class="st1" d="M812.6,641.6l-32.1-11.2c-0.8-0.3-1.1-1.1-0.9-1.8c0.3-0.8,1.1-1.1,1.8-0.9l32.1,11.2c0.8,0.3,1.1,1.1,0.9,1.8
	C814.1,641.4,813.3,641.8,812.6,641.6z"/>
<path class="st1" d="M806.6,658.8l-32.1-11.2c-0.8-0.3-1.1-1.1-0.9-1.8s1.1-1.1,1.8-0.9l0,0l32.1,11.2c0.8,0.3,1.1,1.1,0.9,1.8
	S807.3,659.1,806.6,658.8z"/>
<path class="st1" d="M800.6,676.1l-32.1-11.2c-0.8-0.3-1.1-1.1-0.9-1.8s1.1-1.1,1.8-0.9l0,0l32.1,11.2c0.8,0.3,1.1,1.1,0.9,1.8
	S801.3,676.3,800.6,676.1z"/>
<path class="st4" d="M886,685.4c0.2-0.6,0.5-1.1,0.7-1.7c5.5-15.8-2.8-33-18.6-38.5l-10.5,30.3L886,685.4z"/>
<path class="st5" d="M854.4,677.3l10.5-30.3c-15.8-5.5-33,2.8-38.5,18.6s2.8,33,18.6,38.5c15.1,5.3,31.7-2.1,37.8-16.9L854.4,677.3z
	"/>
<path class="st8" d="M892.1,633.9c-0.5-5.5,3.7-10.4,9.2-10.8c0.6,0,1.2,0,1.8,0l14.9-32.5l9.8,15.7l-15.6,28.4
	c-0.9,5.5-6.1,9.3-11.6,8.4C896,642.4,892.5,638.5,892.1,633.9L892.1,633.9z"/>
<path class="st7" d="M917.9,622.4c-0.9,0-1.8-0.3-2.6-0.8l-7-4.9c-1.6-1.1-2.3-3-1.8-4.9l8.3-31.2l-10-57.9c0-8,6.4-14.5,14.4-14.6
	s14.5,6.4,14.6,14.4l8.2,36.1c2.5,11,0.9,22.5-4.5,32.3l-15.7,28.9c-0.6,1.1-1.7,1.9-2.9,2.2C918.6,622.4,918.2,622.4,917.9,622.4z"
	/>
<path class="st5" d="M994,803.3H804c-0.6,0-1-0.7-1-1.6c0-0.9,0.4-1.6,1-1.6h190c0.6,0,1,0.7,1,1.6C995,802.6,994.6,803.3,994,803.3
	z"/>
<polygon class="st8" points="490.5,788.8 502.8,788.8 508.6,741.5 490.5,741.5 "/>
<path class="st5" d="M487.4,784.8l24.1,0h0c8.5,0,15.4,6.9,15.4,15.4c0,0,0,0,0,0v0.5l-39.5,0L487.4,784.8z"/>
<polygon class="st8" points="441.5,788.8 453.8,788.8 459.6,741.5 441.5,741.5 "/>
<path class="st5" d="M438.4,784.8l24.1,0h0c8.5,0,15.4,6.9,15.4,15.4c0,0,0,0,0,0v0.5l-39.5,0L438.4,784.8z"/>
<ellipse transform="matrix(0.1602 -0.9871 0.9871 0.1602 -17.1651 853.4766)" class="st8" cx="493" cy="436.8" rx="24.6" ry="24.6"/>
<path class="st9" d="M509.5,778.6h-22.8c-2.5,0-4.5-2-4.5-4.5c0,0,0,0,0-0.1l1.3-108c0-0.8-0.7-1.5-1.5-1.5c-0.8,0-1.4,0.6-1.5,1.3
	l-13.2,108.8c-0.3,2.3-2.2,4-4.5,4h-23c-2.5,0-4.5-2-4.5-4.5c0-0.1,0-0.2,0-0.4l15.2-194.1l0.4,0l72.6-7.8L514,774.3
	C513.9,776.7,511.9,778.6,509.5,778.6z"/>
<path class="st7" d="M451.5,591.6c-2.4,0-4.4-1.9-4.5-4.4c-0.4-12.3-1.1-54.7,6.8-85.9c4.4-17.5,19.8-30,37.8-30.8l0,0
	c17.7-1,34.1,9.5,40.6,26c13.3,33.7,25.8,75.2,10.2,81.8c-20.5,8.5-74.5,12.3-90.6,13.3C451.7,591.5,451.6,591.6,451.5,591.6z"/>
<path class="st8" d="M545.3,412c0.4,0.4,0.8,0.8,1.2,1.1l-2.6,49.5l-10.7,5.5l6.2,17.3l19.9-7.9c3.3-1.3,5.4-4.6,5-8.2l-5.2-56.2
	c4.6-3.5,5.6-10,2.1-14.7c-3.5-4.6-10-5.6-14.7-2.1c-4.6,3.5-5.6,10-2.1,14.7C544.8,411.4,545,411.7,545.3,412L545.3,412z"/>
<path class="st7" d="M544.2,464.5l7.5,21.4c0.8,2.3-0.4,4.9-2.8,5.7c-0.2,0.1-0.4,0.1-0.6,0.2l-22.2,4.3c-6.5,2.3-13.6-1.2-15.9-7.7
	c-2.2-6.5,1.2-13.6,7.7-15.9l20-10.5c2.2-1.2,4.9-0.3,6.1,1.9C544.1,464.1,544.1,464.3,544.2,464.5L544.2,464.5z"/>
<path class="st8" d="M439,412c-0.4,0.4-0.8,0.8-1.2,1.1l2.6,49.5l10.7,5.5l-6.2,17.3l-19.9-7.9c-3.3-1.3-5.4-4.6-5-8.2l5.2-56.2
	c-4.6-3.5-5.6-10-2.1-14.7c3.5-4.6,10-5.6,14.7-2.1c4.6,3.5,5.6,10,2.1,14.7C439.5,411.4,439.3,411.7,439,412L439,412z"/>
<path class="st7" d="M442.7,461.8c1.2-0.5,2.6-0.4,3.7,0.2l20,10.5c6.5,2.3,9.9,9.4,7.6,15.9c-2.3,6.5-9.4,9.9-15.9,7.7l-22.2-4.3
	c-2.4-0.5-4-2.8-3.6-5.3c0-0.2,0.1-0.4,0.2-0.6l7.5-21.4C440.5,463.2,441.5,462.2,442.7,461.8z"/>
<path class="st11" d="M502.5,441c-0.3-6.4,3.3-12.4,9-15.2c7.5-3.9,12.2-12.1,10.1-19.6c-2.6-9.6-15.7-15.8-26.3-12.5
	c-2.9,1-5.6,2.3-8.3,3.8l-6.9,3.7c-3,1.5-5.8,3.2-8.5,5c-8.3,6.1-12.6,16.3-11.3,26.5c1.4,9.8,7.8,18.7,16.5,24.9
	c3.3,2.5,7.2,4.2,11.3,5c4.2,0.7,8.9-0.1,11.9-2.7c4.8-4.1,4.3-10.9,2.7-16.6C502.7,442.6,502.6,441.8,502.5,441z"/>
<path class="st5" d="M586,803.3H396c-0.6,0-1-0.7-1-1.6c0-0.9,0.4-1.6,1-1.6h190c0.6,0,1,0.7,1,1.6C587,802.6,586.6,803.3,586,803.3
	z"/>
<path class="st1" d="M275.9,618.8l-156.8,64.3c-5.6,2.3-12-0.4-14.3-6l-48-117c-1.7-4.1,0.3-8.8,4.4-10.5l162.1-66.5
	c4.2-1.7,9,0.3,10.7,4.5l47.9,116.9C284.2,610.1,281.5,616.5,275.9,618.8z"/>
<path class="st2" d="M124.8,668.9l137.1-56.2c5.4-2.2,8-8.4,5.8-13.9l0,0L229,504.3c-2.2-5.4-8.4-8-13.9-5.8l0,0L78,554.8
	c-5.4,2.2-8,8.4-5.8,13.9l0,0l38.8,94.5C113.2,668.5,119.4,671.1,124.8,668.9z"/>
<rect x="226.2" y="530.5" transform="matrix(0.9252 -0.3795 0.3795 0.9252 -184.4094 125.9646)" class="st12" width="2.2" height="0.4"/>
<path class="st12" d="M222.2,532.9l-4.1,1.7l-0.1-0.3l4.1-1.7L222.2,532.9z M214.1,536.3l-4.1,1.7l-0.1-0.3l4.1-1.7L214.1,536.3z
	 M206,539.6l-4.1,1.7l-0.1-0.3l4.1-1.7L206,539.6z M197.8,542.9l-4.1,1.7l-0.1-0.3l4.1-1.7L197.8,542.9z M189.7,546.3l-4.1,1.7
	l-0.1-0.3l4.1-1.7L189.7,546.3z M181.5,549.6l-4.1,1.7l-0.1-0.3l4.1-1.7L181.5,549.6z M173.4,553l-4.1,1.7l-0.1-0.3l4.1-1.7
	L173.4,553z M165.2,556.3l-4.1,1.7l-0.1-0.3l4.1-1.7L165.2,556.3z M157.1,559.6l-4.1,1.7l-0.1-0.3l4.1-1.7L157.1,559.6z M149,563
	l-4.1,1.7l-0.1-0.3l4.1-1.7L149,563z M140.8,566.3l-4.1,1.7l-0.1-0.3l4.1-1.7L140.8,566.3z M132.7,569.7l-4.1,1.7l-0.1-0.3l4.1-1.7
	L132.7,569.7z M124.5,573l-4.1,1.7l-0.1-0.3l4.1-1.7L124.5,573z M116.4,576.4l-4.1,1.7l-0.1-0.3l4.1-1.7L116.4,576.4z M108.2,579.7
	l-4.1,1.7L104,581l4.1-1.7L108.2,579.7z M100.1,583l-4.1,1.7l-0.1-0.3l4.1-1.7L100.1,583z"/>
<rect x="89.8" y="586.4" transform="matrix(0.9252 -0.3795 0.3795 0.9252 -215.8509 78.3871)" class="st12" width="2.2" height="0.4"/>
<rect x="172.8" y="588.9" transform="matrix(0.9252 -0.3795 0.3795 0.9252 -210.5638 110.0811)" class="st12" width="2.2" height="0.4"/>
<path class="st12" d="M168.9,591.3l-4,1.6l-0.1-0.3l4-1.6L168.9,591.3z M160.9,594.6l-4,1.6l-0.1-0.3l4-1.6L160.9,594.6z
	 M152.9,597.9l-4,1.6l-0.1-0.3l4-1.6L152.9,597.9z M144.9,601.2l-4,1.6l-0.1-0.3l4-1.6L144.9,601.2z M136.9,604.4l-4,1.6l-0.1-0.3
	l4-1.6L136.9,604.4z M128.8,607.7l-4,1.6l-0.1-0.3l4-1.6L128.8,607.7z M120.8,611l-4,1.6l-0.1-0.3l4-1.6L120.8,611z M112.8,614.3
	l-4,1.6l-0.1-0.3l4-1.6L112.8,614.3z"/>
<rect x="102.6" y="617.7" transform="matrix(0.9252 -0.3795 0.3795 0.9252 -226.7492 85.5892)" class="st12" width="2.2" height="0.4"/>
<rect x="139.6" y="619.8" transform="matrix(0.9252 -0.3795 0.3795 0.9252 -224.7807 99.7778)" class="st12" width="2.2" height="0.4"/>
<path class="st12" d="M135.6,622.2l-4.1,1.7l-0.1-0.3l4.1-1.7L135.6,622.2z M127.3,625.6l-4.1,1.7l-0.1-0.3l4.1-1.7L127.3,625.6z
	 M119.1,629l-4.1,1.7l-0.1-0.3l4.1-1.7L119.1,629z"/>
<rect x="108.7" y="632.5" transform="matrix(0.9252 -0.3795 0.3795 0.9252 -231.9054 88.9967)" class="st12" width="2.2" height="0.4"/>
<rect x="149.9" y="645" transform="matrix(0.9252 -0.3795 0.3795 0.9252 -233.5799 105.5927)" class="st12" width="2.2" height="0.4"/>
<path class="st12" d="M145.9,647.5l-4.1,1.7l-0.1-0.3l4.1-1.7L145.9,647.5z M137.7,650.8l-4.1,1.7l-0.1-0.3l4.1-1.7L137.7,650.8z
	 M129.4,654.2l-4.1,1.7l-0.1-0.3l4.1-1.7L129.4,654.2z"/>
<rect x="119" y="657.7" transform="matrix(0.9252 -0.3795 0.3795 0.9252 -240.7046 94.8116)" class="st12" width="2.2" height="0.4"/>
<path class="st4" d="M130.6,654l116.2-47.7c5.9-2.4,8.7-9.1,6.3-15l-23.5-57.2l-0.2,0.1l-28.5,68.2l-21.1-8.8
	c-0.8-0.3-1.7-0.3-2.4,0.2c-0.6,0.3-1,0.8-1.2,1.4l-14.9,35.7l-15.5-6.5c-1.4-0.6-3,0.1-3.6,1.5c0,0,0,0,0,0
	C142,626.2,132.4,649.6,130.6,654z"/>
<path class="st5" d="M130.3,654.6l-0.3-0.1l12-28.6c0.7-1.6,2.5-2.3,4-1.7l15.2,6.3l14.9-35.5c0.7-1.6,2.5-2.3,4-1.7l20.8,8.7
	l28.7-68.5l0.3,0.1L201,602.5l-21.2-8.9c-1.4-0.6-3,0.1-3.6,1.5c0,0,0,0,0,0l-15,35.9l-15.5-6.5c-1.4-0.6-3,0.1-3.6,1.5L130.3,654.6
	z"/>
<circle class="st5" cx="141.7" cy="619.5" r="2.5"/>
<circle class="st5" cx="174.9" cy="588.6" r="2.5"/>
<circle class="st5" cx="226.7" cy="530.2" r="2.5"/>
<path class="st8" d="M84.4,616.7c5-2.5,7-8.5,4.5-13.5c-0.3-0.5-0.6-1-0.9-1.5l7.5-73.8H79.2l-6,72.1c-4.3,3.6-4.8,10-1.2,14.3
	C75.1,617.8,80.2,618.8,84.4,616.7L84.4,616.7z"/>
<circle class="st8" cx="99.4" cy="464" r="23.1"/>
<path class="st13" d="M103.7,570.8c-1.9,0-3.6-1.3-4.1-3.1c-1.8-6.7-6.7-18.1-14.3-33.8c-6.8-13.9-1-30.6,12.9-37.4
	c1-0.5,1.9-0.9,3-1.2l0,0c14.6-5.1,30.5,2.5,35.7,17.1c0.1,0.3,0.2,0.5,0.3,0.8c5.9,18.6,5.6,38.4,5.2,46.1
	c-0.1,1.9-1.5,3.5-3.3,3.9l-34.4,7.5C104.3,570.8,104,570.8,103.7,570.8z"/>
<polygon class="st8" points="137.1,790 148.6,790 154.1,745.5 137.1,745.5 "/>
<path class="st5" d="M170.8,800.7l-36.2,0l0,0l0-14l0,0l22.2,0C164.6,786.7,170.8,792.9,170.8,800.7L170.8,800.7L170.8,800.7
	L170.8,800.7z"/>
<polygon class="st8" points="21.9,775 32,780.6 58.2,744.3 43.3,736.1 "/>
<path class="st5" d="M46.3,800.7l-31.7-17.4l0,0l6.7-12.3l0,0l19.5,10.7C47.5,785.4,50,793.9,46.3,800.7L46.3,800.7L46.3,800.7z"/>
<path class="st9" d="M136.5,765.3c-2.1,0-3.9-1.6-4.2-3.7l-14.4-111c-0.2-1.3-1.3-2.2-2.6-2c-0.7,0.1-1.4,0.5-1.8,1.2l-60,108.9
	c-1,1.8-3.2,2.7-5.2,1.9l-13.1-5c-2.2-0.8-3.3-3.3-2.4-5.5c0,0,0-0.1,0-0.1l41.6-102.2c0.1-0.3,0.2-0.5,0.2-0.8
	c5.6-43.6,20-65.8,24.2-71.5c0.6-0.9,0.8-2,0.5-3l-0.6-1.8c-0.5-1.4-0.2-3,0.8-4.1c15.3-17.5,42.1-7.9,42.4-7.8l0.1,0l0.1,0.1
	c30,41.1,18.9,174.7,16.4,201.1c-0.2,2-1.8,3.7-3.9,3.8l-17.7,1.4C136.8,765.3,136.7,765.3,136.5,765.3z"/>
<path class="st8" d="M189.1,490.8c-0.1,0.5-0.2,1-0.2,1.5l-40.4,23.3l-9.8-5.6l-10.5,13.7l16.4,11.7c2.7,1.9,6.4,1.8,9-0.2
	l41.6-32.8c5.1,1.9,10.8-0.7,12.7-5.8c1.9-5.1-0.7-10.8-5.8-12.7c-5.1-1.9-10.8,0.7-12.7,5.8C189.3,490,189.2,490.4,189.1,490.8
	L189.1,490.8z"/>
<path class="st13" d="M147.2,516.7l-13,16.9c-1.4,1.8-4.1,2.2-5.9,0.8c-0.2-0.1-0.3-0.3-0.5-0.4L113,518.7c-5.1-4-6-11.4-2-16.5
	c4-5.1,11.3-6,16.4-2.1l18.5,10.4c2,1.1,2.8,3.7,1.6,5.8C147.4,516.4,147.3,516.6,147.2,516.7L147.2,516.7z"/>
<path class="st13" d="M96.6,546.1l-21-3.8c-2.3-0.4-3.8-2.6-3.4-4.9c0-0.2,0.1-0.4,0.2-0.6l6.8-20.2c1.2-6.4,7.3-10.6,13.7-9.4
	c6.4,1.2,10.6,7.3,9.4,13.6l-0.7,21.2c-0.1,2.3-2,4.2-4.4,4.1C97,546.2,96.8,546.2,96.6,546.1L96.6,546.1z"/>
<path class="st11" d="M103,458.7c5.9,4.1,13.7,8.2,19.8,3.9c3.9-3,5.4-8.1,3.6-12.7c-2.9-8.3-10.9-11.9-18.5-14.7
	c-9.9-3.6-20.7-6.5-30.9-3.9s-19.3,12.5-17.4,22.9c1.5,8.4,9.4,15.3,8.2,23.7c-1.1,8.5-10.7,12.9-19.1,14.4s-17.8,2-23.9,8
	c-7.7,7.7-5.8,21.5,1.5,29.6c7.3,8.1,18.2,11.8,28.8,14.3c14.1,3.3,29.3,5.1,42.6-0.4s23.7-20.3,19.9-34.3
	c-1.6-5.9-5.5-10.8-9.2-15.7s-7.5-9.9-8.9-15.8c-1.2-4.9-0.3-10.7,3-14.4C103.8,462.3,104,460.4,103,458.7L103,458.7z"/>
<path class="st5" d="M988.8,803.3H5.2c-2.9,0-5.2-0.7-5.2-1.6c0-0.9,2.3-1.6,5.2-1.6h983.6c2.9,0,5.2,0.7,5.2,1.6
	C994,802.6,991.7,803.3,988.8,803.3z"/>
<path class="st14" d="M1625.5,37.5c-28.5-29-62.8-203.6-180.5-112.6c-60.8,47-163.3-40.3-248.1-10.2c-77.9,27.7-85.4,119-77.9,148.7
	c15.2,60.1-32.2,69-76.1,94.8c-68.9,40.5-18.2,182.8,46.9,183.4c65.1,0.7,459.7-1.4,459.7-1.4s94.6,0.3,134-61.9
	C1725.9,211.4,1699.1,112.3,1625.5,37.5z"/>
<path class="st0" d="M1536.1,178c11.4-10,158.2-134.7,310.4-48.1c18.6,10.6,116.5,69.4,151.5,207.2c36.6,144.1-17,289.1-80.9,368.2
	c-137,169.6-423.2,162.3-510.4-29.6C1337.2,522.5,1411,288.2,1536.1,178z"/>
</svg>
