<svg id="Layer_1" data-name="Layer 1" xmlns="http://www.w3.org/2000/svg" viewBox="0 0 842.05 475.25"><defs><style>.cls-1{fill:#10b572;}.cls-2{fill:#0ba86b;}.cls-3{fill:#8beac5;}.cls-4{fill:#fdc00f;}.cls-5{fill:#fed96f;}</style></defs><title>education</title><path class="cls-1" d="M197.48,181.29V397.76c0,24.73,174,77.49,223.55,77.49s223.55-52.76,223.55-77.49V181.29Z"/><polygon class="cls-2" points="197.47 281.6 421.02 365.98 644.58 281.6 644.58 203.09 197.47 203.09 197.47 281.6"/><polygon class="cls-1" points="421.02 0 0 158.91 421.02 317.82 842.05 158.91 421.02 0"/><polygon class="cls-3" points="421.02 317.82 0 158.91 0 180.71 421.02 339.63 842.05 180.71 842.05 158.91 421.02 317.82"/><path class="cls-4" d="M671.14,356.69H652.38s-41.21,58.19-14.1,116.57h47C712.35,414.88,671.14,356.69,671.14,356.69Z"/><path class="cls-5" d="M676.6,463.65c1-5.32.5-11.75.82-18.47a60.89,60.89,0,0,0-.32-10.33c-.3-3.51-.61-7.06-.92-10.62a99.62,99.62,0,0,0-1.54-10.43c-.62-3.39-1.22-6.74-1.8-10-1.7-6.3-2.85-12.31-4.55-17.16a136.22,136.22,0,0,0-5.68-16,140.25,140.25,0,0,1,4.47,16.55c1.34,5,2,11.05,3.25,17.38.34,3.22.69,6.56,1,9.95a94,94,0,0,1,.76,10.26c.05,3.44.1,6.9.14,10.29a57.71,57.71,0,0,1-.4,9.89c-.79,6.31-.71,12.37-2,17.2-1,4.57-1.88,8.32-2.51,11.12h7.81C675.57,470.54,676,467.41,676.6,463.65Z"/><path class="cls-5" d="M653.67,462.14c-1.31-4.83-1.23-10.89-2-17.2a56.71,56.71,0,0,1-.41-9.89c0-3.39.09-6.85.14-10.29a94,94,0,0,1,.76-10.26c.37-3.39.71-6.73,1.06-9.95,1.19-6.33,1.92-12.42,3.25-17.38a140.25,140.25,0,0,1,4.47-16.55,131.86,131.86,0,0,0-5.68,16c-1.71,4.85-2.87,10.86-4.55,17.16-.58,3.24-1.19,6.59-1.8,10a96.3,96.3,0,0,0-1.54,10.43c-.32,3.56-.62,7.11-.93,10.62a62,62,0,0,0-.32,10.33c.33,6.72-.17,13.15.82,18.47.57,3.76,1,6.89,1.45,9.61h7.81Z"/><path class="cls-5" d="M689.86,455.22a57.9,57.9,0,0,0,.8-10.63,71,71,0,0,0-.49-11.33c-.17-3.85-1.16-7.58-1.78-11.37-3.24-15-9.72-28.14-15.07-37.18a114.23,114.23,0,0,0-9.87-14.09,118.58,118.58,0,0,1,8.83,15c4.67,9.47,10.09,23,12.15,37.43.34,3.62,1,7.17.94,10.74a64.65,64.65,0,0,1-.26,10.37,47.71,47.71,0,0,1-1.36,9.42,42.62,42.62,0,0,1-2.11,8.13A57.36,57.36,0,0,1,677,473c-.05.11-.06.15-.11.24h8.37c.57-1.23,1-2.45,1.45-3.68.49-1.61,1-3.11,1.4-5A50.88,50.88,0,0,0,689.86,455.22Z"/><path class="cls-5" d="M661.76,370.62,658,473.26h7.62Z"/><path class="cls-5" d="M646.55,473a56.75,56.75,0,0,1-4.66-11.3,41.89,41.89,0,0,1-2.11-8.13,47,47,0,0,1-1.36-9.42,63.49,63.49,0,0,1-.27-10.37c-.1-3.57.61-7.12.94-10.74,2.07-14.43,7.48-28,12.16-37.43a118.58,118.58,0,0,1,8.83-15,112.91,112.91,0,0,0-9.87,14.09c-5.35,9-11.83,22.18-15.07,37.18-.62,3.79-1.61,7.52-1.79,11.37a71,71,0,0,0-.48,11.33,56.19,56.19,0,0,0,.81,10.63,51.81,51.81,0,0,0,1.74,9.36c.43,1.9.93,3.42,1.41,5,.52,1.22.88,2.43,1.45,3.66h8.38C646.61,473.17,646.6,473.13,646.55,473Z"/><path class="cls-4" d="M640.53,356.69a21.23,21.23,0,1,1,21.23,21.23A21.22,21.22,0,0,1,640.53,356.69Z"/><ellipse class="cls-2" cx="421.03" cy="158.92" rx="66.92" ry="39.66"/><path class="cls-4" d="M486.58,166.92c-2.26,6.51-7.21,12.44-14.14,17.36l-.32,1.11,178.74,52.83V356.69h21.81V221.93Z"/><path class="cls-1" d="M354.11,153.4c0-18.86,25.79-34.14,57.6-34.14s57.62,15.28,57.62,34.14-25.8,34.14-57.62,34.14S354.11,172.26,354.11,153.4Z"/></svg>