<svg id="Layer_1" data-name="Layer 1" xmlns="http://www.w3.org/2000/svg" viewBox="0 0 248.12 475.25"><defs><style>.cls-1{fill:#0ba86b;}.cls-2{fill:#077546;}.cls-3{fill:#1ad38c;}.cls-4{fill:#fff;}.cls-5{fill:#10b572;}</style></defs><title>shopping</title><polygon class="cls-1" points="0 475.25 24.17 451.32 24.17 127.74 0 151.67 0 475.25"/><path class="cls-1" d="M198.71,168.25a3.91,3.91,0,0,1-3.91-3.91V65.83a58.22,58.22,0,0,0-58.3-58c-32.14,0-58.3,25.9-58.3,57.74v98.78a3.91,3.91,0,1,1-7.82,0V65.56C70.38,29.41,100,0,136.5,0a66,66,0,0,1,66.12,65.83v98.51A3.91,3.91,0,0,1,198.71,168.25Z"/><rect class="cls-2" x="24.17" y="127.38" width="223.95" height="323.48"/><rect class="cls-3" y="152.26" width="223.24" height="322.06"/><polygon class="cls-1" points="223.24 475.25 248.12 451.32 248.12 127.74 223.24 151.67 223.24 475.25"/><path class="cls-4" d="M49.36,169A10.65,10.65,0,1,0,60,179.67,10.65,10.65,0,0,0,49.36,169Zm0,16.7a6.06,6.06,0,1,1,6-6.05A6.07,6.07,0,0,1,49.36,185.72Z"/><path class="cls-4" d="M174.12,169a10.65,10.65,0,1,0,10.65,10.65A10.65,10.65,0,0,0,174.12,169Zm0,16.7a6.06,6.06,0,1,1,6-6.05A6.07,6.07,0,0,1,174.12,185.72Z"/><path class="cls-5" d="M174.54,183.18a3.91,3.91,0,0,1-3.91-3.91V81.13a57,57,0,0,0-17.49-40.95,59.25,59.25,0,0,0-83-.13A56.6,56.6,0,0,0,52.61,80.86v98.41a3.91,3.91,0,1,1-7.82,0V80.86A64.36,64.36,0,0,1,64.64,34.44a67.08,67.08,0,0,1,94,.15,64.75,64.75,0,0,1,19.84,46.54v98.14A3.91,3.91,0,0,1,174.54,183.18Z"/></svg>