<?xml version="1.0" encoding="utf-8"?>
<!-- Generator: Adobe Illustrator 22.1.0, SVG Export Plug-In . SVG Version: 6.00 Build 0)  -->
<svg version="1.1" id="Layer_1" xmlns="http://www.w3.org/2000/svg" xmlns:xlink="http://www.w3.org/1999/xlink" x="0px" y="0px"
	 viewBox="0 0 531.7 475.2" style="enable-background:new 0 0 531.7 475.2;" xml:space="preserve">
<style type="text/css">
	.st0{fill:#10B572;}
	.st1{fill:#0BA86B;}
	.st2{fill:#FFFFFF;}
</style>
<title>bank</title>
<path class="st0" d="M274.9,37.8c-5.5-4-11.5-4-17.9,0L22.8,177h486.3L274.9,37.8L274.9,37.8z"/>
<path class="st0" d="M18.7,169.1l237.2-141c7-4.4,14-4.4,20.2,0l237.2,141h1.7c5.3-5.2,5.3-14.5,0-20L275.6,6.8
	c-6.1-4.4-12.6-4.1-19.1,0L17.1,149.1c-5.3,5.5-5.3,14.8,0,20L18.7,169.1z"/>
<path class="st0" d="M495.1,190c0-2.2-0.8-2.9-2.8-2.9H39.4c-2.1,0-3.6,0.8-3.6,2.9v11.3c0,2.2,1.5,4.4,3.6,4.4h452.8
	c2.1,0,2.8-2.3,2.8-4.4V190z"/>
<path class="st0" d="M495.1,406.3c0-2.2-0.8-3.8-2.8-3.8H39.4c-2,0-3.6,1.6-3.6,3.6c0,0.1,0,0.1,0,0.2v11.3c0,2.2,1.5,2.8,3.6,2.8
	h452.8c2.1,0,2.8-0.6,2.8-2.8V406.3z"/>
<path class="st0" d="M512.3,431c0.1-2-1.4-3.8-3.4-3.9c-0.1,0-0.2,0-0.2,0H23.1c-2,0-3.7,1.6-3.7,3.7c0,0.1,0,0.2,0,0.2v11.3
	c0,2.2,1.4,4.2,3.7,4.2h485.5c2.2,0,3.7-2,3.7-4.2V431z"/>
<path class="st0" d="M531.7,457c-0.1-2.3-2-4.1-4.3-4H4.3c-2.3-0.1-4.2,1.7-4.3,4v11.3c0,2.2,1.9,3.4,4.3,3.4h523.1
	c2.4,0,4.3-1.2,4.3-3.4V457z"/>
<rect x="89" y="226.6" class="st1" width="46.4" height="31.3"/>
<rect x="89" y="347.2" class="st1" width="46.4" height="31.3"/>
<path class="st0" d="M141.3,226.7c0,2.1-1.6,3.8-3.7,3.8c0,0,0,0-0.1,0H87.2c-2.2,0-4-1.6-4.2-3.8v-5.2c0-2,2-3,4.2-3h50.4
	c2.2,0,3.8,1,3.8,3L141.3,226.7z"/>
<path class="st0" d="M150.9,386.5c0,2-1.8,3.2-3.9,3.2H79c-2.2,0-3.9-1.2-3.9-3.2l8.8-12.2c2.1-2.8,3.1-3.2,5.2-3.2h48
	c2.2,0,3.2-0.5,5.2,3.2L150.9,386.5z"/>
<path class="st0" d="M135.4,358.8c0,2-1.1,4-3.3,4H92.7c-2.1-0.1-3.8-1.9-3.7-4V242.4c0-2,1.5-3,3.7-3h39.4c2.2,0,3.3,1,3.3,3V358.8
	z"/>
<rect x="191" y="226.6" class="st1" width="46.4" height="31.3"/>
<rect x="191" y="347.2" class="st1" width="46.4" height="31.3"/>
<path class="st0" d="M243.4,226.7c0,2.1-1.6,3.8-3.7,3.8c0,0,0,0-0.1,0h-50.4c-2.2,0-4-1.6-4.2-3.8v-5.2c0-2,2-3,4.2-3h50.4
	c2.2,0,3.8,1,3.8,3V226.7z"/>
<path class="st0" d="M253,386.5c0,2-1.8,3.2-3.9,3.2h-68c-2.2,0-3.9-1.2-3.9-3.2l8.7-12.2c2.1-2.8,3.1-3.2,5.2-3.2h48
	c2.2,0,3.2-0.5,5.2,3.2L253,386.5z"/>
<path class="st0" d="M237.4,358.8c0,2-1.1,4-3.3,4h-39.4c-2.1-0.1-3.8-1.9-3.7-4V242.4c0-2,1.5-3,3.7-3h39.4c2.2,0,3.3,1,3.3,3
	V358.8z"/>
<rect x="293" y="226.6" class="st1" width="46.4" height="31.3"/>
<rect x="293" y="347.2" class="st1" width="46.4" height="31.3"/>
<path class="st0" d="M345.4,226.7c0,2.1-1.6,3.8-3.7,3.8c0,0,0,0-0.1,0h-50.4c-2.2,0-4-1.6-4.2-3.8v-5.2c0-2,2-3,4.2-3h50.4
	c2.2,0,3.8,1,3.8,3L345.4,226.7z"/>
<path class="st0" d="M355,386.5c0,2-1.8,3.2-3.9,3.2h-68c-2.2,0-3.9-1.2-3.9-3.2l8.7-12.2c2.1-2.8,3.1-3.2,5.2-3.2h48
	c2.2,0,3.2-0.5,5.2,3.2L355,386.5z"/>
<path class="st0" d="M339.4,358.8c0,2-1.1,4-3.3,4h-39.4c-2.1-0.1-3.8-1.9-3.7-4V242.4c0-2,1.5-3,3.7-3h39.4c2.2,0,3.3,1,3.3,3
	L339.4,358.8z"/>
<rect x="395.1" y="226.6" class="st1" width="46.4" height="31.3"/>
<rect x="395.1" y="347.2" class="st1" width="46.4" height="31.3"/>
<path class="st0" d="M447.4,226.7c0,2.1-1.7,3.8-3.7,3.8c0,0,0,0,0,0h-50.4c-2.2,0-4-1.6-4.2-3.8v-5.2c0-2,2-3,4.2-3h50.4
	c2.2,0,3.8,1,3.8,3V226.7z"/>
<path class="st0" d="M457,386.5c0,2-1.8,3.2-3.9,3.2h-68c-2.2,0-3.9-1.2-3.9-3.2l8.7-12.2c2.1-2.8,3.1-3.2,5.2-3.2h48
	c2.2,0,3.2-0.5,5.2,3.2L457,386.5z"/>
<path class="st0" d="M441.4,358.8c0,2-1.1,4-3.3,4h-39.4c-2.1-0.1-3.8-1.9-3.7-4V242.4c0-2,1.5-3,3.7-3h39.4c2.2,0,3.3,1,3.3,3
	L441.4,358.8z"/>
<path class="st2" d="M267.7,116.3v9.3c3-0.8,3.3-2.6,3.3-4.3C271.1,119.1,269.8,117,267.7,116.3z"/>
<path class="st2" d="M260,101.7c0,2.1,1.7,3.3,3.2,4.2v-8.2C261.8,98.4,260,99.9,260,101.7z"/>
<path class="st2" d="M266.2,72.8c-20.9,0-37.8,16.9-37.8,37.8s16.9,37.8,37.8,37.8c20.9,0,37.8-16.9,37.8-37.8
	S287.1,72.8,266.2,72.8C266.2,72.8,266.2,72.8,266.2,72.8z M267.7,132.2v4h-4.5v-4c-6-0.7-11.8-4.7-11.8-12.1c0-0.5,0-1.1,0-1.1h7.7
	c0,0,0,0.5,0,0.8c0,3,0.3,5,4,5.8v-11.2c-5.2-1.7-10.9-3.8-10.9-12.1c0-6.7,4.9-10.3,10.9-11v-3.6h4.5v3.7
	c6.7,0.8,10.5,4.5,10.5,11.6v0.5h-7.5V103c0-2.3-0.8-4-3-4.9v9.7c6,1.7,10.9,3.9,10.9,11.9S274.5,131.3,267.7,132.2z"/>
</svg>
