<?xml version="1.0" encoding="utf-8"?>
<!-- Generator: Adobe Illustrator 22.1.0, SVG Export Plug-In . SVG Version: 6.00 Build 0)  -->
<svg version="1.1" id="Layer_1" xmlns="http://www.w3.org/2000/svg" xmlns:xlink="http://www.w3.org/1999/xlink" x="0px" y="0px"
	 viewBox="0 0 842 395.8" style="enable-background:new 0 0 842 395.8;" xml:space="preserve">
<style type="text/css">
	.st0{fill:#1AD38C;}
	.st1{fill:#FFFFFF;}
</style>
<title>sales-07</title>
<path class="st0" d="M11.9,0h818.2c6.6,0,11.9,5.3,11.9,11.9v371.9c0,6.6-5.3,11.9-11.9,11.9H11.9c-6.6,0-11.9-5.3-11.9-11.9V11.9
	C0,5.3,5.3,0,11.9,0z"/>
<path class="st1" d="M786.2,22.7H49.6c-16.8,0-30.5,13.7-30.5,30.5v293.2c0,16.8,13.7,30.5,30.5,30.5h736.6
	c16.8,0,30.5-13.7,30.5-30.5V53.3C816.7,36.4,803.1,22.8,786.2,22.7z M796.1,346.5c0,5.4-4.4,9.8-9.8,9.8l0,0H49.6
	c-5.4,0-9.8-4.4-9.8-9.8l0,0V53.3c0-5.4,4.4-9.8,9.8-9.8h736.6c5.4,0,9.8,4.4,9.8,9.8v0V346.5z"/>
<circle class="st1" cx="421.2" cy="197.3" r="109.3"/>
<path class="st0" d="M425.6,211.5v22.7c8-1.9,8-6.3,8-10.6C433.6,217.6,431.4,214.1,425.6,211.5z"/>
<path class="st0" d="M406.3,175.8c0,5.1,5.6,8.1,7.9,10.4v-20C411.9,167.7,406.3,171.3,406.3,175.8z"/>
<path class="st0" d="M421.8,105.1c-51.1,0-92.6,41.4-92.6,92.5s41.4,92.6,92.5,92.6c51.1,0,92.6-41.4,92.6-92.5c0,0,0,0,0,0
	C514.3,146.5,472.9,105.1,421.8,105.1z M425.6,250.3v10.1h-11.5v-9.9c-13.8-1.8-28.6-11-28.6-29.1c0-0.8,0.1-1.5,0.2-2.2h18.9
	c-0.1,0.5-0.2,0.9-0.2,1.4c0,7.2,0.5,11.7,9.6,13.7v-27.7c-12.6-4.2-26.7-9.4-26.7-29.5c0-16.4,12.9-25.1,26.7-27v-9h11.5v9.2
	c17.2,2.1,26.4,10.9,26.4,28.3v1.6h-18.4V179c0-5.6-2.3-9.8-8-11.9v23.7c13.8,4.1,26.8,9.6,26.8,29S442.8,248.3,425.6,250.3
	L425.6,250.3z"/>
</svg>
